<svg width="500" height="500" viewBox="0 0 500 500" fill="none" xmlns="http://www.w3.org/2000/svg">
    <rect width="500" height="500" rx="100" fill="white"/>
    <path d="M146.693 403V112.091H258.057C279.08 112.091 296.551 115.405 310.472 122.034C324.487 128.568 334.951 137.517 341.864 148.881C348.871 160.244 352.375 173.123 352.375 187.517C352.375 199.354 350.102 209.487 345.557 217.915C341.011 226.248 334.903 233.019 327.233 238.227C319.562 243.436 310.992 247.176 301.523 249.449V252.29C311.845 252.858 321.741 256.03 331.21 261.807C340.775 267.489 348.587 275.538 354.648 285.955C360.708 296.371 363.739 308.966 363.739 323.739C363.739 338.795 360.093 352.337 352.801 364.364C345.509 376.295 334.525 385.718 319.847 392.631C305.169 399.544 286.703 403 264.449 403H146.693ZM199.392 358.966H256.068C275.197 358.966 288.975 355.32 297.403 348.028C305.926 340.642 310.188 331.172 310.188 319.619C310.188 311.002 308.057 303.237 303.795 296.324C299.534 289.316 293.473 283.824 285.614 279.847C277.754 275.775 268.379 273.739 257.489 273.739H199.392V358.966ZM199.392 235.812H251.523C260.614 235.812 268.805 234.155 276.097 230.841C283.388 227.432 289.117 222.65 293.284 216.494C297.545 210.244 299.676 202.858 299.676 194.335C299.676 183.066 295.699 173.786 287.744 166.494C279.884 159.203 268.189 155.557 252.659 155.557H199.392V235.812Z" fill="#1A202C"/>
</svg>
