<svg width="767" height="891" viewBox="0 0 767 891" fill="none" xmlns="http://www.w3.org/2000/svg">
    <path d="M732.64 197.207L420.654 10.2411C397.869 -3.41371 369.825 -3.41371 347.04 10.2411L34.704 197.207C12.9702 210.162 0 233.27 0 258.479V632.061C0 657.27 13.3207 680.378 34.704 693.333L346.689 880.299C379.641 899.205 406.983 889.052 420.304 880.299L732.289 693.333C754.023 680.378 766.993 657.27 766.993 632.061V258.479C767.344 233.27 754.023 210.162 732.64 197.207Z" fill="#FCDA69"/>
    <rect x="486.325" y="591.465" width="25.4394" height="204.817" rx="12.7197" transform="rotate(-135 486.325 591.465)" fill="black"/>
    <rect x="468" y="318.988" width="25.4394" height="204.817" rx="12.7197" transform="rotate(-45 468 318.988)" fill="black"/>
    <rect x="281.828" y="301" width="25.4394" height="204.817" rx="12.7197" transform="rotate(45 281.828 301)" fill="black"/>
    <rect x="300.152" y="573.477" width="25.4394" height="204.817" rx="12.7197" transform="rotate(135 300.152 573.477)" fill="black"/>
    <rect x="412.746" y="302" width="25.4394" height="291.836" rx="12.7197" transform="rotate(16.6965 412.746 302)" fill="black"/>
</svg>