<svg width="238" height="76" viewBox="0 0 238 76" fill="none" xmlns="http://www.w3.org/2000/svg">
    <circle cx="38" cy="38" r="36.5" stroke="black" stroke-width="3"/>
    <path d="M28 38H41C44.866 38 48 41.134 48 45V46C48 49.866 44.866 53 41 53H28V38Z" fill="#FCDA69"/>
    <path d="M26.6364 55V20.0909H38.4148C40.6875 20.0909 42.5795 20.4886 44.0909 21.2841C45.6136 22.0795 46.7557 23.1648 47.517 24.5398C48.2784 25.9148 48.6591 27.4773 48.6591 29.2273C48.6591 30.6818 48.4148 31.9261 47.9261 32.9602C47.4375 33.9943 46.7727 34.8295 45.9318 35.4659C45.0909 36.1023 44.1534 36.5625 43.1193 36.8466V37.1193C44.2443 37.1989 45.3352 37.5966 46.392 38.3125C47.4489 39.017 48.3182 40.0057 49 41.2784C49.6818 42.5511 50.0227 44.0739 50.0227 45.8466C50.0227 47.608 49.6307 49.1818 48.8466 50.5682C48.0625 51.9432 46.858 53.0284 45.233 53.8239C43.6193 54.608 41.5625 55 39.0625 55H26.6364ZM29.8239 52.1364H39.0625C41.7557 52.1364 43.7443 51.5398 45.0284 50.3466C46.3239 49.1534 46.9716 47.6534 46.9716 45.8466C46.9716 44.517 46.6477 43.3125 46 42.233C45.3636 41.142 44.4602 40.2784 43.2898 39.642C42.1307 39.0057 40.767 38.6875 39.1989 38.6875H29.8239V52.1364ZM29.8239 35.858H38.7045C40.0795 35.858 41.2841 35.5739 42.3182 35.0057C43.3523 34.4375 44.1591 33.6534 44.7386 32.6534C45.3182 31.6534 45.608 30.5114 45.608 29.2273C45.608 27.375 45.0057 25.8693 43.8011 24.7102C42.5966 23.5398 40.8011 22.9545 38.4148 22.9545H29.8239V35.858Z" fill="black"/>
    <path d="M99.4769 33V10.4545H107.733C109.333 10.4545 110.658 10.7187 111.707 11.2472C112.757 11.7682 113.542 12.4764 114.063 13.3718C114.584 14.2598 114.845 15.2616 114.845 16.3771C114.845 17.3165 114.672 18.1091 114.327 18.755C113.982 19.3935 113.52 19.9072 112.94 20.2962C112.368 20.6778 111.737 20.9567 111.047 21.1328V21.353C111.795 21.3897 112.526 21.6319 113.238 22.0795C113.957 22.5199 114.551 23.1474 115.021 23.962C115.491 24.7766 115.725 25.7674 115.725 26.9343C115.725 28.0865 115.454 29.1213 114.911 30.0387C114.375 30.9487 113.546 31.6716 112.423 32.2074C111.3 32.7358 109.865 33 108.119 33H99.4769ZM102.879 30.0827H107.788C109.418 30.0827 110.585 29.7672 111.289 29.136C111.994 28.5049 112.346 27.7159 112.346 26.7692C112.346 26.0573 112.166 25.4041 111.806 24.8097C111.447 24.2152 110.933 23.7418 110.265 23.3896C109.605 23.0373 108.819 22.8612 107.909 22.8612H102.879V30.0827ZM102.879 20.2081H107.436C108.199 20.2081 108.886 20.0613 109.495 19.7678C110.111 19.4742 110.599 19.0632 110.959 18.5348C111.326 17.9991 111.509 17.3679 111.509 16.6413C111.509 15.7093 111.183 14.9277 110.529 14.2965C109.876 13.6654 108.875 13.3498 107.524 13.3498H102.879V20.2081ZM119.496 33V16.0909H122.787V33H119.496ZM121.158 13.4819C120.586 13.4819 120.094 13.2911 119.683 12.9094C119.279 12.5205 119.078 12.0581 119.078 11.5224C119.078 10.9793 119.279 10.5169 119.683 10.1353C120.094 9.74633 120.586 9.55185 121.158 9.55185C121.731 9.55185 122.219 9.74633 122.622 10.1353C123.033 10.5169 123.239 10.9793 123.239 11.5224C123.239 12.0581 123.033 12.5205 122.622 12.9094C122.219 13.2911 121.731 13.4819 121.158 13.4819ZM130.507 10.4545V33H127.216V10.4545H130.507ZM139.856 33.3743C138.785 33.3743 137.816 33.1761 136.95 32.7798C136.084 32.3762 135.398 31.7927 134.891 31.0295C134.392 30.2662 134.143 29.3305 134.143 28.2223C134.143 27.2682 134.326 26.483 134.693 25.8665C135.06 25.25 135.556 24.762 136.179 24.4023C136.803 24.0427 137.5 23.7712 138.271 23.5877C139.042 23.4042 139.827 23.2648 140.627 23.1694C141.64 23.052 142.462 22.9566 143.093 22.8832C143.724 22.8024 144.183 22.674 144.469 22.4979C144.755 22.3217 144.898 22.0355 144.898 21.6392V21.5621C144.898 20.6007 144.627 19.8558 144.083 19.3274C143.548 18.799 142.748 18.5348 141.684 18.5348C140.575 18.5348 139.702 18.7807 139.064 19.2724C138.432 19.7567 137.996 20.2962 137.754 20.8906L134.66 20.1861C135.027 19.1586 135.563 18.3293 136.267 17.6982C136.979 17.0597 137.798 16.5973 138.722 16.3111C139.647 16.0175 140.619 15.8707 141.64 15.8707C142.315 15.8707 143.03 15.9515 143.786 16.1129C144.549 16.267 145.261 16.5533 145.922 16.9716C146.59 17.3899 147.136 17.988 147.562 18.766C147.988 19.5366 148.201 20.5384 148.201 21.7713V33H144.986V30.6882H144.854C144.641 31.1139 144.322 31.5322 143.896 31.9432C143.471 32.3542 142.924 32.6954 142.256 32.967C141.588 33.2385 140.788 33.3743 139.856 33.3743ZM140.572 30.7322C141.482 30.7322 142.26 30.5524 142.906 30.1928C143.559 29.8332 144.054 29.3635 144.392 28.7837C144.737 28.1966 144.909 27.5691 144.909 26.9013V24.7216C144.792 24.839 144.564 24.9491 144.227 25.0518C143.896 25.1473 143.518 25.2317 143.093 25.305C142.667 25.3711 142.252 25.4335 141.849 25.4922C141.445 25.5436 141.107 25.5876 140.836 25.6243C140.197 25.705 139.614 25.8408 139.086 26.0316C138.565 26.2224 138.146 26.4976 137.831 26.8572C137.522 27.2095 137.368 27.6792 137.368 28.2663C137.368 29.081 137.669 29.6974 138.271 30.1158C138.873 30.5268 139.64 30.7322 140.572 30.7322ZM155.876 10.4545V33H152.585V10.4545H155.876ZM162.473 33.2092C161.871 33.2092 161.354 32.9963 160.921 32.5707C160.488 32.1377 160.271 31.6166 160.271 31.0075C160.271 30.4057 160.488 29.8919 160.921 29.4663C161.354 29.0333 161.871 28.8168 162.473 28.8168C163.075 28.8168 163.592 29.0333 164.025 29.4663C164.458 29.8919 164.675 30.4057 164.675 31.0075C164.675 31.4111 164.572 31.7817 164.367 32.1193C164.169 32.4496 163.904 32.7138 163.574 32.9119C163.244 33.1101 162.877 33.2092 162.473 33.2092ZM99.4769 65V42.4545H107.733C109.333 42.4545 110.658 42.7187 111.707 43.2472C112.757 43.7682 113.542 44.4764 114.063 45.3718C114.584 46.2598 114.845 47.2616 114.845 48.3771C114.845 49.3165 114.672 50.1091 114.327 50.755C113.982 51.3935 113.52 51.9072 112.94 52.2962C112.368 52.6778 111.737 52.9567 111.047 53.1328V53.353C111.795 53.3897 112.526 53.6319 113.238 54.0795C113.957 54.5199 114.551 55.1474 115.021 55.962C115.491 56.7766 115.725 57.7674 115.725 58.9343C115.725 60.0865 115.454 61.1213 114.911 62.0387C114.375 62.9487 113.546 63.6716 112.423 64.2074C111.3 64.7358 109.865 65 108.119 65H99.4769ZM102.879 62.0827H107.788C109.418 62.0827 110.585 61.7672 111.289 61.136C111.994 60.5049 112.346 59.7159 112.346 58.7692C112.346 58.0573 112.166 57.4041 111.806 56.8097C111.447 56.2152 110.933 55.7418 110.265 55.3896C109.605 55.0373 108.819 54.8612 107.909 54.8612H102.879V62.0827ZM102.879 52.2081H107.436C108.199 52.2081 108.886 52.0613 109.495 51.7678C110.111 51.4742 110.599 51.0632 110.959 50.5348C111.326 49.9991 111.509 49.3679 111.509 48.6413C111.509 47.7093 111.183 46.9277 110.529 46.2965C109.876 45.6654 108.875 45.3498 107.524 45.3498H102.879V52.2081ZM126.784 65.3413C125.118 65.3413 123.683 64.9853 122.479 64.2734C121.283 63.5542 120.358 62.5451 119.705 61.2461C119.059 59.9397 118.736 58.4096 118.736 56.6555C118.736 54.9235 119.059 53.397 119.705 52.076C120.358 50.755 121.268 49.7238 122.435 48.9826C123.609 48.2414 124.982 47.8707 126.552 47.8707C127.506 47.8707 128.431 48.0285 129.327 48.3441C130.222 48.6597 131.026 49.1551 131.737 49.8303C132.449 50.5054 133.011 51.3825 133.422 52.4613C133.833 53.5328 134.038 54.8355 134.038 56.3693V57.5362H120.597V55.0703H130.813C130.813 54.2043 130.637 53.4374 130.284 52.7695C129.932 52.0943 129.437 51.5623 128.798 51.1733C128.167 50.7843 127.426 50.5898 126.574 50.5898C125.65 50.5898 124.842 50.8174 124.153 51.2724C123.47 51.7201 122.942 52.3072 122.567 53.0337C122.2 53.753 122.017 54.5346 122.017 55.3786V57.305C122.017 58.4353 122.215 59.3967 122.611 60.1893C123.015 60.9819 123.576 61.5874 124.296 62.0057C125.015 62.4167 125.855 62.6222 126.817 62.6222C127.44 62.6222 128.009 62.5341 128.523 62.358C129.037 62.1745 129.481 61.9029 129.855 61.5433C130.229 61.1837 130.515 60.7397 130.714 60.2113L133.829 60.7727C133.579 61.6901 133.132 62.4937 132.486 63.1836C131.847 63.8661 131.044 64.3982 130.075 64.7798C129.114 65.1541 128.017 65.3413 126.784 65.3413ZM140.982 54.9602V65H137.69V48.0909H140.85V50.843H141.059C141.448 49.9477 142.057 49.2285 142.886 48.6854C143.723 48.1423 144.776 47.8707 146.046 47.8707C147.198 47.8707 148.207 48.1129 149.073 48.5973C149.939 49.0743 150.611 49.7862 151.088 50.733C151.565 51.6797 151.803 52.8503 151.803 54.2447V65H148.512V54.641C148.512 53.4154 148.192 52.4576 147.554 51.7678C146.915 51.0705 146.038 50.7219 144.923 50.7219C144.16 50.7219 143.481 50.8871 142.886 51.2173C142.299 51.5476 141.833 52.032 141.488 52.6705C141.151 53.3016 140.982 54.0649 140.982 54.9602ZM164.111 48.0909V50.733H154.875V48.0909H164.111ZM157.351 44.0398H160.643V60.0352C160.643 60.6737 160.738 61.1544 160.929 61.4773C161.12 61.7929 161.366 62.0094 161.667 62.1268C161.975 62.2369 162.309 62.2919 162.669 62.2919C162.933 62.2919 163.164 62.2736 163.362 62.2369C163.56 62.2002 163.714 62.1708 163.824 62.1488L164.419 64.8679C164.228 64.9413 163.957 65.0147 163.604 65.0881C163.252 65.1688 162.812 65.2128 162.283 65.2202C161.417 65.2348 160.61 65.0807 159.861 64.7578C159.113 64.4349 158.507 63.9358 158.045 63.2607C157.583 62.5855 157.351 61.7378 157.351 60.7177V44.0398ZM174.693 65.3413C173.107 65.3413 171.724 64.978 170.542 64.2514C169.361 63.5249 168.443 62.5084 167.79 61.2021C167.137 59.8957 166.811 58.3692 166.811 56.6225C166.811 54.8685 167.137 53.3346 167.79 52.021C168.443 50.7073 169.361 49.6871 170.542 48.9606C171.724 48.234 173.107 47.8707 174.693 47.8707C176.278 47.8707 177.661 48.234 178.843 48.9606C180.024 49.6871 180.942 50.7073 181.595 52.021C182.248 53.3346 182.575 54.8685 182.575 56.6225C182.575 58.3692 182.248 59.8957 181.595 61.2021C180.942 62.5084 180.024 63.5249 178.843 64.2514C177.661 64.978 176.278 65.3413 174.693 65.3413ZM174.704 62.5781C175.731 62.5781 176.582 62.3066 177.258 61.7635C177.933 61.2204 178.432 60.4975 178.755 59.5948C179.085 58.6921 179.25 57.6977 179.25 56.6115C179.25 55.5327 179.085 54.5419 178.755 53.6392C178.432 52.7292 177.933 51.9989 177.258 51.4485C176.582 50.8981 175.731 50.6229 174.704 50.6229C173.669 50.6229 172.81 50.8981 172.128 51.4485C171.452 51.9989 170.95 52.7292 170.619 53.6392C170.297 54.5419 170.135 55.5327 170.135 56.6115C170.135 57.6977 170.297 58.6921 170.619 59.5948C170.95 60.4975 171.452 61.2204 172.128 61.7635C172.81 62.3066 173.669 62.5781 174.704 62.5781ZM196.96 57.9876V48.0909H200.263V65H197.026V62.0717H196.85C196.461 62.9744 195.837 63.7267 194.979 64.3285C194.127 64.9229 193.067 65.2202 191.797 65.2202C190.711 65.2202 189.75 64.9817 188.913 64.5046C188.084 64.0202 187.43 63.3047 186.953 62.358C186.484 61.4112 186.249 60.2406 186.249 58.8462V48.0909H189.54V58.4499C189.54 59.6022 189.86 60.5195 190.498 61.2021C191.137 61.8846 191.966 62.2259 192.986 62.2259C193.603 62.2259 194.215 62.0717 194.824 61.7635C195.441 61.4553 195.951 60.9892 196.355 60.3654C196.766 59.7416 196.967 58.949 196.96 57.9876ZM204.685 65V48.0909H207.845V50.843H208.054C208.406 49.911 208.982 49.1844 209.782 48.6634C210.582 48.1349 211.54 47.8707 212.656 47.8707C213.786 47.8707 214.732 48.1349 215.496 48.6634C216.266 49.1918 216.835 49.9183 217.202 50.843H217.378C217.782 49.9403 218.424 49.2211 219.305 48.6854C220.185 48.1423 221.235 47.8707 222.453 47.8707C223.987 47.8707 225.238 48.3514 226.207 49.3129C227.183 50.2743 227.671 51.7237 227.671 53.6612V65H224.38V53.9695C224.38 52.8246 224.068 51.9953 223.444 51.4815C222.82 50.9678 222.075 50.7109 221.209 50.7109C220.138 50.7109 219.305 51.0412 218.71 51.7017C218.116 52.3549 217.819 53.1952 217.819 54.2227V65H214.538V53.7603C214.538 52.8429 214.252 52.1053 213.679 51.5476C213.107 50.9898 212.362 50.7109 211.445 50.7109C210.821 50.7109 210.245 50.8761 209.716 51.2063C209.195 51.5292 208.773 51.9806 208.45 52.5604C208.135 53.1402 207.977 53.8117 207.977 54.5749V65H204.685ZM232.083 65V48.0909H235.374V65H232.083ZM233.745 45.4819C233.173 45.4819 232.681 45.2911 232.27 44.9094C231.866 44.5205 231.665 44.0581 231.665 43.5224C231.665 42.9793 231.866 42.5169 232.27 42.1353C232.681 41.7463 233.173 41.5518 233.745 41.5518C234.318 41.5518 234.806 41.7463 235.209 42.1353C235.62 42.5169 235.826 42.9793 235.826 43.5224C235.826 44.0581 235.62 44.5205 235.209 44.9094C234.806 45.2911 234.318 45.4819 233.745 45.4819Z" fill="black"/>
</svg>
