<svg width="32" height="32" viewBox="0 0 32 32" fill="none" xmlns="http://www.w3.org/2000/svg">
    <path
        d="M24 0H8C3.58172 0 0 3.58172 0 8V24C0 28.4183 3.58172 32 8 32H24C28.4183 32 32 28.4183 32 24V8C32 3.58172 28.4183 0 24 0Z"
        fill="url(#paint0_linear_0_1)" />
    <path
        d="M7.84711 21V19.376H9.13511V12.824H7.84711V11.2H12.8871C13.4844 11.2 14.0024 11.3026 14.4411 11.508C14.8891 11.704 15.2344 11.9886 15.4771 12.362C15.7291 12.726 15.8551 13.1646 15.8551 13.678V13.818C15.8551 14.266 15.7711 14.6346 15.6031 14.924C15.4351 15.204 15.2344 15.4233 15.0011 15.582C14.7771 15.7313 14.5624 15.8386 14.3571 15.904V16.156C14.5624 16.212 14.7864 16.3193 15.0291 16.478C15.2718 16.6273 15.4771 16.8466 15.6451 17.136C15.8224 17.4253 15.9111 17.8033 15.9111 18.27V18.41C15.9111 18.9513 15.7851 19.418 15.5331 19.81C15.2811 20.1926 14.9311 20.4866 14.4831 20.692C14.0444 20.8973 13.5311 21 12.9431 21H7.84711ZM10.9831 19.32H12.7191C13.1204 19.32 13.4424 19.222 13.6851 19.026C13.9371 18.83 14.0631 18.55 14.0631 18.186V18.046C14.0631 17.682 13.9418 17.402 13.6991 17.206C13.4564 17.01 13.1298 16.912 12.7191 16.912H10.9831V19.32ZM10.9831 15.232H12.6911C13.0738 15.232 13.3864 15.134 13.6291 14.938C13.8811 14.742 14.0071 14.4713 14.0071 14.126V13.986C14.0071 13.6313 13.8858 13.3606 13.6431 13.174C13.4004 12.978 13.0831 12.88 12.6911 12.88H10.9831V15.232Z"
        fill="black" />
    <path
        d="M17.144 21V19.376H18.432V12.824H17.144V11.2H22.184C22.7813 11.2 23.2993 11.3026 23.738 11.508C24.186 11.704 24.5313 11.9886 24.774 12.362C25.026 12.726 25.152 13.1646 25.152 13.678V13.818C25.152 14.266 25.068 14.6346 24.9 14.924C24.732 15.204 24.5313 15.4233 24.298 15.582C24.074 15.7313 23.8593 15.8386 23.654 15.904V16.156C23.8593 16.212 24.0833 16.3193 24.326 16.478C24.5686 16.6273 24.774 16.8466 24.942 17.136C25.1193 17.4253 25.208 17.8033 25.208 18.27V18.41C25.208 18.9513 25.082 19.418 24.83 19.81C24.578 20.1926 24.228 20.4866 23.78 20.692C23.3413 20.8973 22.828 21 22.24 21H17.144ZM20.28 19.32H22.016C22.4173 19.32 22.7393 19.222 22.982 19.026C23.234 18.83 23.36 18.55 23.36 18.186V18.046C23.36 17.682 23.2386 17.402 22.996 17.206C22.7533 17.01 22.4266 16.912 22.016 16.912H20.28V19.32ZM20.28 15.232H21.988C22.3706 15.232 22.6833 15.134 22.926 14.938C23.178 14.742 23.304 14.4713 23.304 14.126V13.986C23.304 13.6313 23.1826 13.3606 22.94 13.174C22.6973 12.978 22.38 12.88 21.988 12.88H20.28V15.232Z"
        fill="black" />
    <defs>
        <linearGradient id="paint0_linear_0_1" x1="0" y1="0" x2="32" y2="32"
            gradientUnits="userSpaceOnUse">
            <stop stop-color="#8B5CF6" />
            <stop offset="1" stop-color="#22D3EE" />
        </linearGradient>
    </defs>
</svg>